<svg width="592" height="592" viewBox="0 0 592 592" fill="none" xmlns="http://www.w3.org/2000/svg">
<path d="M239.52 288.094C219.67 294.374 204.81 323.944 211.62 335.114C214.41 339.684 221.87 342.904 227.73 341.154C229.98 340.484 231.64 339.184 232.76 338.064C233.04 337.784 233.06 337.344 232.83 337.024C226.92 329.084 226.65 321.274 231.21 313.224C233.71 308.794 237.84 306.494 241.56 307.194C246.11 308.044 249.84 312.004 250.5 317.014C250.81 319.344 250.86 321.734 250.71 324.074C250.6 325.834 250.22 327.574 249.8 329.774C249.67 330.444 250.4 330.964 250.99 330.614C252.39 329.784 253.56 329.124 254.53 328.244C262.28 321.134 266.83 312.204 268.87 301.984C274.84 271.974 279.53 241.784 281.05 211.174C281.38 204.444 281.72 197.714 281.73 190.984C281.74 187.514 283.29 185.734 286.38 184.864C294.25 182.634 301.08 184.994 306.43 190.614C310.12 194.494 314.09 198.794 315.64 203.894C316.44 206.504 316.82 210.694 316.07 213.864C311.86 231.784 305.97 249.334 302.68 267.434C299.83 283.114 298.95 293.084 298.75 306.074C298.71 308.874 298.77 311.764 301.39 313.074C301.9 313.324 304.06 311.944 304.1 311.374C304.43 306.604 304.69 301.984 305.12 297.384C306.94 277.834 313.19 259.564 321.79 242.094C325.06 235.444 329.68 229.694 337.63 227.894C338.44 227.714 339.24 226.584 339.64 225.704C340.37 224.104 340.45 222.204 341.36 220.684C345.63 213.534 344.33 212.884 352.07 209.064C366.67 204.094 377.08 203.034 391.48 204.734C400.55 205.804 407.43 210.994 411.76 219.204C418.9 232.744 420.23 246.984 416.98 261.824C415.15 270.204 413.49 278.614 411.72 287.204C411.64 287.604 411.88 288.024 412.27 288.134C420.04 290.384 426.95 287.834 433.89 286.234C434.27 286.144 436.16 285.634 436.16 285.634L437.39 285.064C437.35 284.944 435.54 287.194 434.87 287.804C434.11 288.494 433.08 289.124 432.15 289.584C425.83 292.704 419.23 294.484 412.2 294.444C410.27 294.434 408.55 295.624 407.9 297.444C402.33 313.024 396.09 326.344 386.57 340.004C373.94 358.134 354.77 364.914 336.6 361.564C326.4 359.684 319.71 352.044 313.79 344.064C311.74 341.294 310.23 338.124 308.56 335.114C308.33 334.704 307.8 334.584 307.42 334.844C303.72 337.334 300.05 339.954 296.2 342.274C291.49 345.094 286.23 345.844 280.82 345.374C273.51 344.744 268.32 338.804 268.68 331.524C268.8 329.184 268.96 326.844 269.12 324.444C269.18 323.614 268.07 323.264 267.64 323.984C266.99 325.074 266.34 326.144 265.67 327.204C262.67 331.924 258.78 335.254 253.98 337.244C252 338.064 249.88 338.664 247.59 339.034C245.68 339.344 243.62 340.484 242.23 341.854C234.96 349.044 227.08 355.114 216.64 356.724C203.53 358.754 192.46 352.884 186.8 340.834C181.91 330.414 181.85 319.534 184.54 308.594C188.23 293.594 196.02 281.234 208.83 272.324C211.81 270.254 216.47 267.424 223.21 266.164C223.64 266.084 229.28 265.114 233.67 266.014C242.52 267.824 250.76 278.174 248.67 283.494C247.47 286.494 243.33 286.894 239.52 288.094ZM352.8 258.084C352.43 257.624 351.7 257.714 351.45 258.254C343.86 275.134 339.18 299.334 340.24 316.834C340.65 323.574 341.68 330.244 345.11 336.244C348.39 341.994 354.62 344.834 359.65 342.374C363.41 340.534 367.21 338.324 370.21 335.464C381.74 324.504 387.74 310.294 393.19 295.294C393.33 294.904 393.15 294.484 392.78 294.304C375.81 286.384 364.41 272.414 352.8 258.084ZM395.83 281.894C396.28 282.094 396.81 281.834 396.93 281.354C399.54 271.264 401.46 261.214 400.28 250.984C399.21 241.754 395.09 233.594 388.37 227.044C383.24 222.044 376.58 223.054 373.05 229.214C371.72 231.534 370.52 234.094 370.01 236.694C365.94 257.504 377.6 273.814 395.83 281.894ZM239.18 325.944C239.46 326.374 240.08 326.434 240.44 326.064C242.62 323.834 243.32 321.264 242.86 318.334C242.76 317.664 242.07 316.884 241.45 316.584C241.13 316.424 240.14 317.054 239.82 317.554C238.17 320.164 237.16 322.844 239.18 325.944Z" fill="#D6AEAE"/>
<path d="M495.85 211.725C497.64 210.995 499.5 210.655 500.76 209.605C501.93 208.625 503.36 206.625 503.04 205.545C502.7 204.395 500.33 202.915 499.08 203.095C487.57 204.805 475.84 205.785 465.32 211.465C462.94 212.745 460.6 214.205 458.54 215.945C451.33 222.025 450.58 229.725 456.37 237.215C460.66 242.765 466.36 246.595 472.54 249.655C479.99 253.345 487.56 256.815 495.1 260.315C512.24 268.245 525.5 280.335 531.66 298.355C545.68 339.405 524.45 376.765 492.8 392.345C482.79 397.265 472.18 399.604 460.97 399.674C453.22 399.724 445.53 400.345 438.03 397.455C417.01 389.335 403 375.145 400.02 352.205C397.32 331.425 410.05 310.924 433.14 304.924C443.01 302.354 451.53 309.345 453.99 318.715C455.01 322.615 453.2 325.605 449.17 326.385C445.02 327.185 440.74 327.385 436.51 327.775C428.95 328.475 418.71 336.985 416.88 344.325C415.64 349.285 416.55 354.075 420.49 357.295C424.07 360.225 428.2 362.865 432.52 364.405C440.38 367.195 448.64 367.195 456.99 366.485C473.7 365.055 493.72 344.945 493.07 321.525C492.45 299.145 481.18 283.855 463.64 271.965C461.32 270.395 458.6 269.395 456.02 268.235C446.64 264.035 438.1 258.645 431.37 250.725C417.43 234.325 419.67 213.325 436.4 199.765C448.76 189.745 463.1 185.095 478.43 182.385C482.02 181.755 485.7 180.225 488.75 178.215C496.06 173.405 503.46 172.495 511.15 176.615C519.39 181.025 524.59 187.925 525.27 197.365C526.05 208.075 515.51 216.845 504.17 215.355C501.24 214.965 498.04 214.915 495.85 211.725Z" fill="#D6AEAE"/>
<path d="M112.67 292.005C111.15 297.895 109.85 303.845 108.06 309.645C103.17 325.545 98.16 341.415 93.03 357.245C90.07 366.365 83.71 369.675 74.27 367.275C67.8 365.635 62.5 362.175 58.34 356.865C55.91 353.765 55.42 350.565 56.65 346.925C61.5 332.645 66.34 318.355 71.15 304.055C71.97 301.605 72.64 299.085 73.27 296.585C73.98 293.775 74.9 293.365 77.24 293.135C96.02 289.665 111.86 285.205 124.34 280.005C129.31 277.935 129.72 277.855 131.4 281.825C134.65 289.545 138.09 295.305 141.48 302.015C155.05 328.845 170.55 354.235 194.23 373.655C199.32 377.825 204.77 380.735 211.21 381.845C215.66 382.615 219.53 384.385 222.49 387.935C224.72 390.615 225.32 393.625 224.38 396.905C221.64 406.395 209.74 416.095 199.99 417.125C195.56 417.595 191.91 415.885 188.36 413.705C165 399.375 148.33 379.195 136.17 354.855C127.34 337.195 128.35 338.295 116.53 299.565C115.76 296.925 114.6 294.395 113.62 291.815C113.29 291.885 112.98 291.945 112.67 292.005Z" fill="#D6AEAE"/>
<path d="M108.15 267.804C113.29 265.704 115.54 265.824 116.91 258.454C118.31 250.934 120.21 243.524 121.79 236.034C124.65 222.534 127.56 209.044 130.17 195.494C130.95 191.474 131.03 187.274 131.01 183.164C131 180.414 130.21 177.634 126.84 176.974C118.55 175.344 110.21 174.864 101.83 176.164C97.6 176.824 95.4 178.924 94.46 183.134C94.05 184.974 93.81 186.844 93.47 188.704C91.8 197.834 83.91 241.834 82.07 250.594C81.1 255.174 79.63 262.004 77.66 270.324C77.66 270.324 76.33 275.204 79.97 274.544C84.49 273.714 89.09 272.944 94.72 271.724C103.38 269.824 108.24 267.784 108.15 267.804Z" fill="#D6AEAE"/>
<path d="M202.07 208.635C203.87 190.055 211.23 186.645 214.11 185.335C214.84 185.005 218.58 183.485 221.21 181.215C223.77 179.005 225.52 176.925 225.16 177.245C220.5 181.365 221.93 187.475 221.94 188.465C222.01 198.065 218.88 205.565 205.64 210.235C202.94 211.185 201.34 213.945 199.46 215.945C176.59 242.535 149.81 263.565 117.35 277.115C108.66 280.735 99.59 283.575 90.48 286.025C85.76 287.295 74.39 289.625 75.8 289.315C73.52 289.485 74.47 285.415 74.41 283.955C74.33 282.055 74.49 280.145 77.41 279.485C84.82 277.815 87.41 277.365 87.86 277.135C126.99 269.545 169.26 241.265 197.35 214.145L202.07 208.635Z" fill="#D6AEAE"/>
<path d="M215.82 233.064C212.53 236.494 209.52 239.724 206.41 242.844C200.8 248.474 193.7 249.944 186.19 249.224C182.04 248.824 177.99 247.324 173.28 246.164C180.35 238.854 187.4 233.274 197.65 234.464C203.83 235.194 210.02 236.724 215.82 233.064Z" fill="#D6AEAE"/>
<path d="M198.24 254.044C194.91 256.454 192.3 258.524 189.52 260.334C180.72 266.024 171.36 267.174 161.46 263.544C158.77 262.554 156.04 261.644 153.07 260.604C158.27 257.884 163.48 254.804 168.97 252.394C173.77 250.284 178.92 250.394 183.81 252.484C188.38 254.424 192.96 255.914 198.24 254.044Z" fill="#D6AEAE"/>
<path d="M158.31 209.744C155.3 212.534 152.75 214.694 150.44 217.074C143.14 224.594 140.18 233.554 141.81 243.964C142.25 246.804 142.62 249.644 143.05 252.764C146.74 248.194 150.77 243.694 154.22 238.774C157.23 234.484 158.13 229.404 157.04 224.204C156.01 219.334 155.44 214.554 158.31 209.744Z" fill="#D6AEAE"/>
<path d="M177.87 271.734C174.29 273.744 171.46 275.504 168.48 276.974C159.08 281.614 149.65 281.674 140.24 276.924C137.68 275.634 135.08 274.414 132.24 273.034C137.72 270.934 143.25 268.474 148.99 266.704C154 265.164 159.1 265.864 163.72 268.504C168.04 270.974 172.41 272.984 177.87 271.734Z" fill="#D6AEAE"/>
<path d="M226.41 210.195C222.01 230.775 207.26 233.325 189.44 230.245C195.87 222.045 203.41 215.635 214.47 214.595C218.92 214.185 223.53 213.955 226.41 210.195Z" fill="#D6AEAE"/>
<path d="M201.7 187.965C181.13 192.435 178.63 207.195 181.76 225.005C189.94 218.545 196.33 210.985 197.33 199.925C197.74 195.475 197.95 190.865 201.7 187.965Z" fill="#D6AEAE"/>
<path d="M178.92 198.645C175.21 201.625 171.73 204.335 168.35 207.165C162.25 212.255 160.16 219.205 160.21 226.745C160.24 230.915 161.39 235.075 162.13 239.875C170.03 233.475 176.21 226.935 175.92 216.625C175.74 210.405 174.76 204.105 178.92 198.645Z" fill="#D6AEAE"/>
<path d="M140.17 220.485C136.86 223.675 133.75 226.585 130.73 229.605C125.3 235.045 123.83 241.975 124.45 249.325C124.79 253.385 126.2 257.355 127.26 261.985C134.31 255.135 139.71 248.285 138.66 238.255C138.03 232.195 136.62 226.125 140.17 220.485Z" fill="#D6AEAE"/>
<g clip-path="url(#clip0_99_17)">
<path d="M295.72 591.44C459.042 591.44 591.44 459.042 591.44 295.72C591.44 132.398 459.042 0 295.72 0C132.398 0 0 132.398 0 295.72C0 459.042 132.398 591.44 295.72 591.44Z" fill="#D6AEAE"/>
<path d="M239.72 286.21C219.87 292.49 205.01 322.06 211.82 333.23C214.61 337.8 222.07 341.02 227.93 339.27C230.18 338.6 231.84 337.3 232.96 336.18C233.24 335.9 233.26 335.46 233.03 335.14C227.12 327.2 226.85 319.39 231.41 311.34C233.91 306.91 238.04 304.61 241.76 305.31C246.31 306.16 250.04 310.12 250.7 315.13C251.01 317.46 251.06 319.85 250.91 322.19C250.8 323.95 250.42 325.69 250 327.89C249.87 328.56 250.6 329.08 251.19 328.73C252.59 327.9 253.76 327.24 254.73 326.36C262.48 319.25 267.03 310.32 269.07 300.1C275.04 270.09 279.73 239.9 281.25 209.29C281.58 202.56 281.92 195.83 281.93 189.1C281.94 185.63 283.49 183.85 286.58 182.98C294.45 180.75 301.28 183.11 306.63 188.73C310.32 192.61 314.29 196.91 315.84 202.01C316.64 204.62 317.02 208.81 316.27 211.98C312.06 229.9 306.17 247.45 302.88 265.55C300.03 281.23 299.15 291.2 298.95 304.19C298.91 306.99 298.97 309.88 301.59 311.19C302.1 311.44 304.26 310.06 304.3 309.49C304.63 304.72 304.89 300.1 305.32 295.5C307.14 275.95 313.39 257.68 321.99 240.21C325.26 233.56 329.88 227.81 337.83 226.01C338.64 225.83 339.44 224.7 339.84 223.82C340.57 222.22 340.65 220.32 341.56 218.8C345.83 211.65 344.53 211 352.27 207.18C366.87 202.21 377.28 201.15 391.68 202.85C400.75 203.92 407.63 209.11 411.96 217.32C419.1 230.86 420.43 245.1 417.18 259.94C415.35 268.32 413.69 276.73 411.92 285.32C411.84 285.72 412.08 286.14 412.47 286.25C420.24 288.5 427.15 285.95 434.09 284.35C434.47 284.26 436.36 283.75 436.36 283.75L437.59 283.18C437.55 283.06 435.74 285.31 435.07 285.92C434.31 286.61 433.28 287.24 432.35 287.7C426.03 290.82 419.43 292.6 412.4 292.56C410.47 292.55 408.75 293.74 408.1 295.56C402.53 311.14 396.29 324.46 386.77 338.12C374.14 356.25 354.97 363.03 336.8 359.68C326.6 357.8 319.91 350.16 313.99 342.18C311.94 339.41 310.43 336.24 308.76 333.23C308.53 332.82 308 332.7 307.62 332.96C303.92 335.45 300.25 338.07 296.4 340.39C291.69 343.21 286.43 343.96 281.02 343.49C273.71 342.86 268.52 336.92 268.88 329.64C269 327.3 269.16 324.96 269.32 322.56C269.38 321.73 268.27 321.38 267.84 322.1C267.19 323.19 266.54 324.26 265.87 325.32C262.87 330.04 258.98 333.37 254.18 335.36C252.2 336.18 250.08 336.78 247.79 337.15C245.88 337.46 243.82 338.6 242.43 339.97C235.16 347.16 227.28 353.23 216.84 354.84C203.73 356.87 192.66 351 187 338.95C182.11 328.53 182.05 317.65 184.74 306.71C188.43 291.71 196.22 279.35 209.03 270.44C212.01 268.37 216.67 265.54 223.41 264.28C223.84 264.2 229.48 263.23 233.87 264.13C242.72 265.94 250.96 276.29 248.87 281.61C247.67 284.6 243.52 285 239.72 286.21ZM353 256.2C352.63 255.74 351.9 255.83 351.65 256.37C344.06 273.25 339.38 297.45 340.44 314.95C340.85 321.69 341.88 328.36 345.31 334.36C348.59 340.11 354.82 342.95 359.85 340.49C363.61 338.65 367.41 336.44 370.41 333.58C381.94 322.62 387.94 308.41 393.39 293.41C393.53 293.02 393.35 292.6 392.98 292.42C376.01 284.5 364.61 270.53 353 256.2ZM396.03 280.01C396.48 280.21 397.01 279.95 397.13 279.47C399.74 269.38 401.66 259.33 400.48 249.1C399.41 239.87 395.29 231.71 388.57 225.16C383.44 220.16 376.78 221.17 373.25 227.33C371.92 229.65 370.72 232.21 370.21 234.81C366.14 255.61 377.8 271.93 396.03 280.01ZM239.37 324.05C239.65 324.48 240.27 324.54 240.63 324.17C242.81 321.94 243.51 319.37 243.05 316.44C242.95 315.77 242.26 314.99 241.64 314.69C241.32 314.53 240.33 315.16 240.01 315.66C238.37 318.27 237.36 320.96 239.37 324.05Z" fill="white"/>
<path d="M496.05 209.84C497.84 209.11 499.7 208.77 500.96 207.72C502.13 206.74 503.56 204.74 503.24 203.66C502.9 202.51 500.53 201.03 499.28 201.21C487.77 202.92 476.04 203.9 465.52 209.58C463.14 210.86 460.8 212.32 458.74 214.06C451.53 220.14 450.78 227.84 456.57 235.33C460.86 240.88 466.56 244.71 472.74 247.77C480.19 251.46 487.76 254.93 495.3 258.43C512.44 266.36 525.7 278.45 531.86 296.47C545.88 337.52 524.65 374.88 493 390.46C482.99 395.38 472.38 397.72 461.17 397.79C453.42 397.84 445.73 398.46 438.23 395.57C417.21 387.45 403.2 373.26 400.22 350.32C397.52 329.54 410.25 309.04 433.34 303.04C443.21 300.47 451.73 307.46 454.19 316.83C455.21 320.73 453.4 323.72 449.37 324.5C445.22 325.3 440.94 325.5 436.71 325.89C429.15 326.59 418.92 335.1 417.08 342.44C415.84 347.4 416.75 352.19 420.69 355.41C424.27 358.34 428.4 360.98 432.72 362.52C440.58 365.31 448.84 365.31 457.19 364.6C473.9 363.17 493.92 343.06 493.27 319.64C492.65 297.26 481.38 281.97 463.84 270.08C461.52 268.51 458.8 267.51 456.22 266.35C446.84 262.15 438.3 256.76 431.57 248.84C417.63 232.44 419.87 211.44 436.6 197.88C448.96 187.86 463.3 183.21 478.63 180.5C482.22 179.87 485.9 178.34 488.95 176.33C496.26 171.52 503.66 170.61 511.35 174.73C519.59 179.14 524.79 186.04 525.47 195.48C526.25 206.19 515.71 214.96 504.37 213.47C501.44 213.07 498.24 213.03 496.05 209.84Z" fill="white"/>
<path d="M112.86 290.12C111.34 296.01 110.04 301.96 108.25 307.76C103.36 323.66 98.3499 339.53 93.2199 355.36C90.2599 364.48 83.8999 367.79 74.4599 365.39C67.9899 363.75 62.6899 360.29 58.5299 354.98C56.0999 351.88 55.6099 348.68 56.8399 345.04C61.6899 330.76 66.5299 316.47 71.3399 302.17C72.1599 299.72 72.8299 297.2 73.4599 294.7C74.1699 291.89 75.0899 291.48 77.4299 291.25C96.2099 287.78 112.05 283.32 124.53 278.12C129.5 276.05 129.91 275.97 131.59 279.94C134.84 287.66 138.28 293.42 141.67 300.13C155.24 326.96 170.74 352.35 194.42 371.77C199.51 375.94 204.96 378.85 211.4 379.96C215.85 380.73 219.72 382.5 222.68 386.05C224.91 388.73 225.51 391.74 224.57 395.02C221.83 404.51 209.93 414.21 200.18 415.24C195.75 415.71 192.1 414 188.55 411.82C165.19 397.49 148.52 377.31 136.36 352.97C127.53 335.31 128.54 336.41 116.72 297.68C115.95 295.04 114.79 292.51 113.81 289.93C113.49 290 113.18 290.06 112.86 290.12Z" fill="white"/>
<path d="M108.35 265.91C113.49 263.81 115.74 263.93 117.11 256.56C118.51 249.04 120.41 241.63 121.99 234.14C124.85 220.64 127.76 207.15 130.37 193.6C131.15 189.58 131.23 185.38 131.21 181.27C131.19 178.52 130.4 175.74 127.03 175.08C118.74 173.45 110.4 172.97 102.02 174.27C97.7899 174.93 95.5899 177.03 94.6499 181.24C94.2399 183.08 93.9999 184.95 93.6599 186.81C91.9899 195.94 84.0999 239.94 82.2599 248.7C81.2899 253.28 79.8199 260.11 77.8499 268.43C77.8499 268.43 76.5199 273.31 80.1599 272.65C84.6799 271.82 89.2799 271.05 94.9099 269.83C103.58 267.94 108.44 265.89 108.35 265.91Z" fill="white"/>
<path d="M202.27 206.74C204.07 188.16 211.43 184.75 214.31 183.44C215.04 183.11 218.78 181.59 221.41 179.32C223.97 177.11 225.72 175.03 225.36 175.35C220.7 179.47 222.13 185.58 222.14 186.57C222.21 196.17 219.08 203.67 205.84 208.34C203.14 209.29 201.54 212.05 199.66 214.05C176.79 240.64 150.01 261.67 117.55 275.22C108.86 278.84 99.7899 281.68 90.6799 284.13C85.9599 285.4 74.5899 287.73 75.9999 287.42C73.7199 287.59 74.6699 283.52 74.6099 282.06C74.5299 280.16 74.6899 278.25 77.6099 277.59C85.0199 275.92 87.6099 275.47 88.0599 275.24C127.19 267.65 169.46 239.37 197.55 212.25L202.27 206.74Z" fill="white"/>
<path d="M216.02 231.17C212.73 234.6 209.72 237.83 206.61 240.95C201 246.58 193.9 248.05 186.39 247.33C182.24 246.93 178.19 245.43 173.48 244.27C180.55 236.96 187.6 231.38 197.85 232.57C204.03 233.3 210.22 234.83 216.02 231.17Z" fill="white"/>
<path d="M198.44 252.16C195.11 254.57 192.5 256.64 189.72 258.45C180.92 264.14 171.56 265.29 161.66 261.66C158.97 260.67 156.24 259.76 153.27 258.72C158.47 256 163.68 252.92 169.17 250.51C173.97 248.4 179.12 248.51 184.01 250.6C188.58 252.54 193.16 254.03 198.44 252.16Z" fill="white"/>
<path d="M158.51 207.85C155.5 210.64 152.95 212.8 150.64 215.18C143.34 222.7 140.38 231.66 142.01 242.07C142.45 244.91 142.82 247.75 143.25 250.87C146.94 246.3 150.97 241.8 154.42 236.88C157.43 232.59 158.33 227.51 157.24 222.31C156.21 217.44 155.64 212.66 158.51 207.85Z" fill="white"/>
<path d="M178.07 269.84C174.49 271.85 171.66 273.61 168.68 275.08C159.28 279.72 149.85 279.78 140.44 275.03C137.88 273.74 135.28 272.52 132.44 271.14C137.92 269.04 143.45 266.58 149.19 264.81C154.2 263.27 159.3 263.97 163.92 266.61C168.24 269.08 172.61 271.09 178.07 269.84Z" fill="white"/>
<path d="M226.61 208.3C222.21 228.88 207.46 231.43 189.64 228.35C196.07 220.15 203.61 213.74 214.67 212.7C219.12 212.3 223.73 212.07 226.61 208.3Z" fill="white"/>
<path d="M201.9 186.08C181.33 190.55 178.83 205.31 181.96 223.12C190.14 216.66 196.53 209.1 197.53 198.04C197.94 193.59 198.15 188.98 201.9 186.08Z" fill="white"/>
<path d="M179.11 196.76C175.4 199.74 171.92 202.45 168.54 205.28C162.44 210.37 160.35 217.32 160.4 224.86C160.43 229.03 161.58 233.19 162.32 237.99C170.22 231.59 176.4 225.05 176.11 214.74C175.94 208.51 174.96 202.21 179.11 196.76Z" fill="white"/>
<path d="M140.37 218.59C137.06 221.78 133.95 224.69 130.93 227.71C125.5 233.15 124.03 240.08 124.65 247.43C124.99 251.49 126.4 255.46 127.46 260.09C134.51 253.24 139.91 246.39 138.86 236.36C138.23 230.3 136.82 224.23 140.37 218.59Z" fill="white"/>
</g>
<defs>
<clipPath id="clip0_99_17">
<rect width="591.43" height="591.43" fill="white"/>
</clipPath>
</defs>
</svg>
